<?xml version="1.0" encoding="UTF-8" standalone="no"?>
<svg width="60px" height="60px" viewBox="0 0 60 60" version="1.1" xmlns="http://www.w3.org/2000/svg" xmlns:xlink="http://www.w3.org/1999/xlink" xmlns:sketch="http://www.bohemiancoding.com/sketch/ns">
    <!-- Generator: Sketch 3.2.2 (9983) - http://www.bohemiancoding.com/sketch -->
    <title>Kidneys</title>
    <desc>Created with Sketch.</desc>
    <defs></defs>
    <g id="colored" stroke="none" stroke-width="1" fill="none" fill-rule="evenodd" sketch:type="MSPage">
        <g id="Medical_sliced" sketch:type="MSLayerGroup" transform="translate(-600.000000, 0.000000)"></g>
        <g id="Medical" sketch:type="MSLayerGroup" transform="translate(-597.000000, -15.000000)" stroke="#314E55" stroke-width="2" stroke-linecap="round" stroke-linejoin="round">
            <g id="Kidneys" transform="translate(600.000000, 24.033748)" sketch:type="MSShapeGroup">
                <path d="M3.14448302,22.7558018 C1.58157888,20.7819136 -1.01371703,16.6215103 2.28169294,8.3807899 C5.57710292,0.140069521 11.5216629,0.8722362 17.0173202,0.872236694 C22.5129776,0.872237188 26.1629686,5.35668164 22.5614387,8.38079025 C18.9599088,11.4048989 17.0173202,9.08420937 14.5416054,13.8451502 C12.0658905,18.606091 17.6094585,23.763317 14.5416054,26.0344646 C11.4737523,28.3056121 4.70738716,24.7296901 3.14448302,22.7558018 Z" id="Path-499" fill="#E4AD40"></path>
                <path d="M49.8977493,22.7558018 C51.4606535,20.7819136 54.0559494,16.6215103 50.7605394,8.3807899 C47.4651295,0.140069521 41.5205695,0.8722362 36.0249121,0.872236694 C30.5292548,0.872237188 26.8792638,5.35668164 30.4807937,8.38079025 C34.0823235,11.4048989 36.0249121,9.08420937 38.500627,13.8451502 C40.9763419,18.606091 35.4327739,23.763317 38.500627,26.0344646 C41.5684801,28.3056121 48.3348452,24.7296901 49.8977493,22.7558018 Z" id="Path-499" fill="#E4AD40"></path>
                <path d="M14.3712787,18.205841 C14.3712787,18.205841 21.8592745,16.0654687 23.6719415,29.737987 C25.4846086,43.4105053 21.1068749,44.6169902 21.1068749,44.6169902" id="Path-501"></path>
                <path d="M29,18.205841 C29,18.205841 36.4879958,16.0654687 38.3006629,29.737987 C40.1133299,43.4105053 35.7355962,44.6169902 35.7355962,44.6169902" id="Path-501" transform="translate(33.870184, 31.350573) scale(-1, 1) translate(-33.870184, -31.350573) "></path>
                <path d="M35.6040577,10.3388118 C36.3039486,8.48011344 36.8877686,7.74455424 38.740367,7" id="Path-503"></path>
                <path d="M48.1653811,4.60773133 C46.9595215,6.83618108 47.1651426,8.52529783 45.6095377,10.0577312" id="Path-504"></path>
                <path d="M48.992331,23.336347 C47.2879554,21.5774002 46.7758253,20.7831939 43.9025033,20.7831939" id="Path-505"></path>
                <path id="Path-506" d=""></path>
                <path d="M2.52238849,21.9958743 C3.69482474,18.9354714 5.92750826,19.331137 8.2666467,17.9942978" id="Path-507"></path>
                <path d="M5.66699781,3.18983616 C4.62259586,5.59133218 6.93633665,6.43433819 6.66579453,9.31679831" id="Path-508"></path>
                <path d="M18.692134,9.99417145 C15.9735575,10.2497878 14.4189614,8.6123345 11.9460524,8.6123345" id="Path-509"></path>
            </g>
        </g>
    </g>
</svg>