<?xml version="1.0" encoding="UTF-8" standalone="no"?>
<svg width="60px" height="60px" viewBox="0 0 60 60" version="1.1" xmlns="http://www.w3.org/2000/svg" xmlns:xlink="http://www.w3.org/1999/xlink" xmlns:sketch="http://www.bohemiancoding.com/sketch/ns">
    <!-- Generator: Sketch 3.2.2 (9983) - http://www.bohemiancoding.com/sketch -->
    <title>Priest</title>
    <desc>Created with Sketch.</desc>
    <defs></defs>
    <g id="colored" stroke="none" stroke-width="1" fill="none" fill-rule="evenodd" sketch:type="MSPage">
        <g id="Holidays_sliced" sketch:type="MSLayerGroup" transform="translate(-600.000000, 0.000000)"></g>
        <g id="Holidays" sketch:type="MSLayerGroup" transform="translate(-595.000000, 3.000000)" stroke="#314E55" stroke-width="2" stroke-linecap="round" stroke-linejoin="round">
            <g id="Priest" transform="translate(604.000000, 0.000000)" sketch:type="MSShapeGroup">
                <path d="M21.5,40 C31.1649831,40 39,31.045695 39,20 C39,8.954305 36.5862069,-2.02700156e-15 21.5,0 C6.4137931,2.11146e-15 4,8.954305 4,20 C4,31.045695 11.8350169,40 21.5,40 Z" id="Oval-1699" fill="#E4AD40"></path>
                <path d="M39,24 C41.209139,24 43,22.209139 43,20 C43,17.790861 41.209139,16 39,16" id="Oval-1702" fill="#E9E7D1"></path>
                <path d="M0,24 C2.209139,24 4,22.209139 4,20 C4,17.790861 2.209139,16 0,16" id="Oval-1702" fill="#E9E7D1" transform="translate(2.000000, 20.000000) scale(-1, 1) translate(-2.000000, -20.000000) "></path>
                <path d="M24.7778134,34.7460725 C32.8760917,33.4746262 39,27.5798723 39,20.5 C39,14.4546395 37.6244311,9.27336168 30.4600036,7.09669058 L30.4600036,7.09669058 C29.7385561,9.88668516 26.3147918,12 22.2,12 C17.9137438,12 14.3773056,9.70689088 13.8640302,6.74449027 C5.54200377,8.66734087 4,14.0993549 4,20.5 C4,27.5798723 10.1239083,33.4746262 18.2221866,34.7460725 L21.5,31 L24.7778134,34.7460725 Z" id="Oval-1700" fill="#E9E7D1"></path>
                <path d="M30,19 C30,17.3431458 28.6568542,16 27,16 C25.3431458,16 24,17.3431458 24,19" id="Oval-1702"></path>
                <path d="M19,19 C19,17.3431458 17.6568542,16 16,16 C14.3431458,16 13,17.3431458 13,19" id="Oval-1702"></path>
                <path d="M21.5,26.97929 C21.5,26.97929 19,24.4792899 16.5,25.9792899 C14,27.4792899 14,28.5000001 11,28.5" id="Path-4260"></path>
                <path d="M31.5,26.97929 C31.5,26.97929 29,24.4792899 26.5,25.9792899 C24,27.4792899 24,28.5000001 21,28.5" id="Path-4260" transform="translate(26.250000, 27.000000) scale(-1, 1) translate(-26.250000, -27.000000) "></path>
                <path d="M23,46 L23,43 L20,43 L20,46 L16,46 L16,49 L20,49 L20,56 L23,56 L23,49 L27,49 L27,46 L23,46 Z" id="Rectangle-1915" fill="#DBCF56"></path>
            </g>
        </g>
    </g>
</svg>