<?xml version="1.0" encoding="UTF-8" standalone="no"?>
<svg width="60px" height="60px" viewBox="0 0 60 60" version="1.1" xmlns="http://www.w3.org/2000/svg" xmlns:xlink="http://www.w3.org/1999/xlink" xmlns:sketch="http://www.bohemiancoding.com/sketch/ns">
    <!-- Generator: Sketch 3.2.2 (9983) - http://www.bohemiancoding.com/sketch -->
    <title>Weddinggate</title>
    <desc>Created with Sketch.</desc>
    <defs></defs>
    <g id="colored" stroke="none" stroke-width="1" fill="none" fill-rule="evenodd" sketch:type="MSPage">
        <g id="Holidays_sliced" sketch:type="MSLayerGroup" transform="translate(-480.000000, 0.000000)"></g>
        <g id="Holidays" sketch:type="MSLayerGroup" transform="translate(-475.000000, 3.000000)" stroke="#314E55" stroke-width="2" stroke-linecap="round" stroke-linejoin="round">
            <g id="Weddinggate" transform="translate(477.000000, 2.000000)" sketch:type="MSShapeGroup">
                <path d="M23.8631978,0.242905472 C21.2191859,1.23251124 20.2276721,4.96059258 21.6485895,8.5698082 C23.0679319,12.175023 28.8550184,14.8105831 28.8550184,14.8105831 C28.8550184,14.8105831 34.9320681,12.175023 36.3514105,8.5698082 C37.7723279,4.96059258 36.7808141,1.23251124 34.1368022,0.242905472 C32.4726194,-0.379968022 30.5504289,0.230504562 29,1.66847366 C29,1.66847366 25.5273806,-0.379968022 23.8631978,0.242905472 Z" id="Oval-1694" fill="#D26CBA"></path>
                <path d="M5,52 L5,29.5 C5,19.212986 11.9058743,10.5383805 21.3354551,7.85636815 M37.2674011,8.0367684 C46.3872005,10.910074 53,19.4312234 53,29.5 L53,52" id="Rectangle-1915"></path>
                <polygon id="Star-39" points="9 33 7.8244295 33.618034 8.04894348 32.309017 7.09788697 31.381966 8.41221475 31.190983 9 30 9.58778525 31.190983 10.902113 31.381966 9.95105652 32.309017 10.1755705 33.618034 "></polygon>
                <polygon id="Star-39" points="9 10.8563681 7.8244295 11.4744021 8.04894348 10.1653851 7.09788697 9.23833416 8.41221475 9.04735115 9 7.85636815 9.58778525 9.04735115 10.902113 9.23833416 9.95105652 10.1653851 10.1755705 11.4744021 "></polygon>
                <polygon id="Star-39" points="45 7 43.8244295 7.61803399 44.0489435 6.30901699 43.097887 5.38196601 44.4122147 5.19098301 45 4 45.5877853 5.19098301 46.902113 5.38196601 45.9510565 6.30901699 46.1755705 7.61803399 "></polygon>
                <polygon id="Star-39" points="46 22 44.8244295 22.618034 45.0489435 21.309017 44.097887 20.381966 45.4122147 20.190983 46 19 46.5877853 20.190983 47.902113 20.381966 46.9510565 21.309017 47.1755705 22.618034 "></polygon>
                <polygon id="Star-39" points="56 35 54.8244295 35.618034 55.0489435 34.309017 54.097887 33.381966 55.4122147 33.190983 56 32 56.5877853 33.190983 57.902113 33.381966 56.9510565 34.309017 57.1755705 35.618034 "></polygon>
                <polygon id="Star-39" points="2 22 0.824429495 22.618034 1.04894348 21.309017 0.0978869674 20.381966 1.41221475 20.190983 2 19 2.58778525 20.190983 3.90211303 20.381966 2.95105652 21.309017 3.1755705 22.618034 "></polygon>
                <polygon id="Star-39" points="48 50 46.8244295 50.618034 47.0489435 49.309017 46.097887 48.381966 47.4122147 48.190983 48 47 48.5877853 48.190983 49.902113 48.381966 48.9510565 49.309017 49.1755705 50.618034 "></polygon>
                <polygon id="Star-39" points="10 42 8.8244295 42.618034 9.04894348 41.309017 8.09788697 40.381966 9.41221475 40.190983 10 39 10.5877853 40.190983 11.902113 40.381966 10.9510565 41.309017 11.1755705 42.618034 "></polygon>
            </g>
        </g>
    </g>
</svg>